# xmcd
#
# Track frame offsets:
#	187
#	13580
#	28947
#	42982
#	56307
#	71832
#	90797
#	100082
#	120385
#	131852
#	147490
#	165555
#
# Disc length: 2386 seconds
#
# Revision: 4
# Processed by: cddbd v1.5.2PL0 Copyright (c) Steve Scherf et al.
# Submitted via: EZCDAudioConverter 6.0.5.1
#
DISCID=9d09500c
DTITLE=The Desert Rose Band - A Dozen Roses (Greatest Hits)
DYEAR=1991
DGENRE=Country
TTITLE0=Love Reunited
TTITLE1=One Step Forward
TTITLE2=He's Back And I'm Blue
TTITLE3=She Don't Love Nobody
TTITLE4=Summer Wind
TTITLE5=I Still Believe In You
TTITLE6=Hello Trouble
TTITLE7=Start All Over Again
TTITLE8=Story Of Love
TTITLE9=Will This Be The Day
TTITLE10=Come A Little Closer
TTITLE11=Price I Pay
EXTD=
EXTT0=
EXTT1=
EXTT2=
EXTT3=
EXTT4=
EXTT5=
EXTT6=
EXTT7=
EXTT8=
EXTT9=
EXTT10=
EXTT11=
PLAYORDER=
